<svg xmlns="http://www.w3.org/2000/svg" height="40" viewBox="0 -960 960 960" width="40"><path fill="#DC2D27" d="M580.078-246.667q22.255 0 37.755-15.578 15.5-15.579 15.5-37.833 0-22.255-15.578-37.755-15.579-15.5-37.833-15.5-22.255 0-37.755 15.578-15.5 15.579-15.5 37.833 0 22.255 15.578 37.755 15.579 15.5 37.833 15.5ZM378-251.334 628.666-502 582-548.666 331.334-298 378-251.334Zm2.078-195.333q22.255 0 37.755-15.578 15.5-15.579 15.5-37.833 0-22.255-15.578-37.755-15.579-15.5-37.833-15.5-22.255 0-37.755 15.578-15.5 15.579-15.5 37.833 0 22.255 15.578 37.755 15.579 15.5 37.833 15.5Zm99.906 373.363q-139.86 0-233.27-95.919T153.304-408q0-101.58 81.094-221.199Q315.493-748.819 480-888.768q164.507 139.949 245.681 259.569Q806.855-509.58 806.855-408q0 142.858-93.506 238.777-93.506 95.919-233.365 95.919Z"/></svg>
