<svg width="20" height="20" viewBox="0 0 20 20" fill="none" xmlns="http://www.w3.org/2000/svg">
	<mask id="mask0_225_34" style="mask-type:alpha" maskUnits="userSpaceOnUse" x="0" y="0" width="20" height="20">
		<rect width="20" height="20" fill="#D9D9D9" />
	</mask>
	<g mask="url(#mask0_225_34)">
		<path
			d="M10 18.3333C8.09723 18.3333 6.51043 17.6806 5.23959 16.375C3.96876 15.0695 3.33334 13.4445 3.33334 11.5C3.33334 10.6389 3.52779 9.77779 3.91668 8.91668C4.30557 8.05557 4.79168 7.22918 5.37501 6.43751C5.95834 5.64584 6.59029 4.90279 7.27084 4.20834C7.9514 3.5139 8.58334 2.90973 9.16668 2.39584C9.27779 2.28473 9.40626 2.20487 9.55209 2.15626C9.69793 2.10765 9.84723 2.08334 10 2.08334C10.1528 2.08334 10.3021 2.10765 10.4479 2.15626C10.5938 2.20487 10.7222 2.28473 10.8333 2.39584C11.4167 2.90973 12.0486 3.5139 12.7292 4.20834C13.4097 4.90279 14.0417 5.64584 14.625 6.43751C15.2083 7.22918 15.6945 8.05557 16.0833 8.91668C16.4722 9.77779 16.6667 10.6389 16.6667 11.5C16.6667 13.4445 16.0313 15.0695 14.7604 16.375C13.4896 17.6806 11.9028 18.3333 10 18.3333ZM12.0833 15C12.4306 15 12.7257 14.8785 12.9688 14.6354C13.2118 14.3924 13.3333 14.0972 13.3333 13.75C13.3333 13.4028 13.2118 13.1076 12.9688 12.8646C12.7257 12.6215 12.4306 12.5 12.0833 12.5C11.7361 12.5 11.441 12.6215 11.1979 12.8646C10.9549 13.1076 10.8333 13.4028 10.8333 13.75C10.8333 14.0972 10.9549 14.3924 11.1979 14.6354C11.441 14.8785 11.7361 15 12.0833 15ZM7.29168 14.375C7.45834 14.5417 7.65279 14.625 7.87501 14.625C8.09723 14.625 8.29168 14.5417 8.45834 14.375L12.7083 10.125C12.875 9.95834 12.9583 9.7639 12.9583 9.54168C12.9583 9.31945 12.875 9.12501 12.7083 8.95834C12.5417 8.79168 12.3438 8.70834 12.1146 8.70834C11.8854 8.70834 11.6875 8.79168 11.5208 8.95834L7.29168 13.1875C7.12501 13.3542 7.04168 13.5521 7.04168 13.7813C7.04168 14.0104 7.12501 14.2083 7.29168 14.375ZM7.91668 10.8333C8.2639 10.8333 8.55904 10.7118 8.80209 10.4688C9.04515 10.2257 9.16668 9.93057 9.16668 9.58334C9.16668 9.23612 9.04515 8.94098 8.80209 8.69793C8.55904 8.45487 8.2639 8.33334 7.91668 8.33334C7.56945 8.33334 7.27432 8.45487 7.03126 8.69793C6.7882 8.94098 6.66668 9.23612 6.66668 9.58334C6.66668 9.93057 6.7882 10.2257 7.03126 10.4688C7.27432 10.7118 7.56945 10.8333 7.91668 10.8333Z"
			fill="black" />
	</g>
</svg>
