<svg width="20" height="20" viewBox="0 0 20 20" fill="none" xmlns="http://www.w3.org/2000/svg">
	<mask id="mask0_225_58" style="mask-type:alpha" maskUnits="userSpaceOnUse" x="0" y="0" width="20" height="20">
		<rect width="20" height="20" fill="#D9D9D9" />
	</mask>
	<g mask="url(#mask0_225_58)">
		<path
			d="M15.625 7.20831C15.25 7.58331 14.8194 7.86804 14.3333 8.06248C13.8472 8.25692 13.3611 8.35415 12.875 8.35415C12.3889 8.35415 11.9097 8.2604 11.4375 8.0729C10.9653 7.8854 10.5417 7.5972 10.1667 7.20831L8.60416 5.64581C8.39582 5.43748 8.15971 5.28123 7.89582 5.17706C7.63193 5.0729 7.3611 5.02081 7.08332 5.02081C6.80555 5.02081 6.53471 5.0729 6.27082 5.17706C6.00693 5.28123 5.77082 5.43748 5.56249 5.64581L4.58332 6.62498C4.41666 6.79165 4.22221 6.87151 3.99999 6.86456C3.77777 6.85762 3.58332 6.77081 3.41666 6.60415C3.24999 6.43748 3.16666 6.23956 3.16666 6.0104C3.16666 5.78123 3.24999 5.58331 3.41666 5.41665L4.37499 4.45831C4.74999 4.08331 5.1736 3.80206 5.64582 3.61456C6.11805 3.42706 6.59721 3.33331 7.08332 3.33331C7.56943 3.33331 8.04513 3.42706 8.51041 3.61456C8.97568 3.80206 9.39582 4.08331 9.77082 4.45831L11.3333 6.02081C11.5555 6.24304 11.7986 6.40623 12.0625 6.5104C12.3264 6.61456 12.5972 6.66665 12.875 6.66665C13.1528 6.66665 13.4271 6.61456 13.6979 6.5104C13.9687 6.40623 14.2153 6.24304 14.4375 6.02081L15.4167 5.04165C15.5833 4.87498 15.7812 4.79165 16.0104 4.79165C16.2396 4.79165 16.4375 4.87498 16.6042 5.04165C16.7708 5.20831 16.8542 5.40623 16.8542 5.6354C16.8542 5.86456 16.7708 6.06248 16.6042 6.22915L15.625 7.20831ZM15.625 11.375C15.25 11.75 14.8229 12.0312 14.3437 12.2187C13.8646 12.4062 13.3819 12.5 12.8958 12.5C12.4097 12.5 11.9271 12.4062 11.4479 12.2187C10.9687 12.0312 10.5417 11.75 10.1667 11.375L8.60416 9.81248C8.39582 9.60415 8.15971 9.4479 7.89582 9.34373C7.63193 9.23956 7.3611 9.18748 7.08332 9.18748C6.80555 9.18748 6.53471 9.23956 6.27082 9.34373C6.00693 9.4479 5.77082 9.60415 5.56249 9.81248L4.58332 10.7916C4.43054 10.9444 4.23957 11.0243 4.01041 11.0312C3.78124 11.0382 3.58332 10.9583 3.41666 10.7916C3.24999 10.6389 3.16318 10.4444 3.15624 10.2083C3.14929 9.9722 3.22916 9.77081 3.39582 9.60415L4.37499 8.62498C4.74999 8.24998 5.1736 7.96873 5.64582 7.78123C6.11805 7.59373 6.59721 7.49998 7.08332 7.49998C7.56943 7.49998 8.04513 7.59373 8.51041 7.78123C8.97568 7.96873 9.39582 8.24998 9.77082 8.62498L11.3333 10.1875C11.5555 10.4097 11.7986 10.5729 12.0625 10.6771C12.3264 10.7812 12.5972 10.8333 12.875 10.8333C13.1528 10.8333 13.4271 10.7812 13.6979 10.6771C13.9687 10.5729 14.2153 10.4097 14.4375 10.1875L15.4167 9.20831C15.5833 9.04165 15.7812 8.95831 16.0104 8.95831C16.2396 8.95831 16.4375 9.04165 16.6042 9.20831C16.7708 9.37498 16.8542 9.5729 16.8542 9.80206C16.8542 10.0312 16.7708 10.2291 16.6042 10.3958L15.625 11.375ZM15.6042 15.5416C15.2292 15.9166 14.8055 16.1979 14.3333 16.3854C13.8611 16.5729 13.3819 16.6666 12.8958 16.6666C12.4097 16.6666 11.9271 16.5729 11.4479 16.3854C10.9687 16.1979 10.5417 15.9166 10.1667 15.5416L8.58332 13.9791C8.37499 13.7708 8.13888 13.6146 7.87499 13.5104C7.6111 13.4062 7.34027 13.3541 7.06249 13.3541C6.78471 13.3541 6.51388 13.4062 6.24999 13.5104C5.9861 13.6146 5.74999 13.7708 5.54166 13.9791L4.56249 14.9583C4.40971 15.1111 4.21874 15.191 3.98957 15.1979C3.76041 15.2048 3.56249 15.125 3.39582 14.9583C3.24304 14.8055 3.16666 14.6111 3.16666 14.375C3.16666 14.1389 3.24304 13.9444 3.39582 13.7916L4.37499 12.7916C4.74999 12.4166 5.1736 12.1354 5.64582 11.9479C6.11805 11.7604 6.59721 11.6666 7.08332 11.6666C7.56943 11.6666 8.04513 11.7604 8.51041 11.9479C8.97568 12.1354 9.39582 12.4166 9.77082 12.7916L11.3333 14.3541C11.5555 14.5764 11.8021 14.7396 12.0729 14.8437C12.3437 14.9479 12.618 15 12.8958 15C13.1736 15 13.4444 14.9479 13.7083 14.8437C13.9722 14.7396 14.2153 14.5764 14.4375 14.3541L15.4167 13.375C15.5833 13.2083 15.7778 13.1285 16 13.1354C16.2222 13.1423 16.4167 13.2291 16.5833 13.3958C16.7361 13.5625 16.816 13.7569 16.8229 13.9791C16.8299 14.2014 16.75 14.3958 16.5833 14.5625L15.6042 15.5416Z"
			fill="black" />
	</g>
</svg>
