<svg width="20" height="20" viewBox="0 0 20 20" fill="none" xmlns="http://www.w3.org/2000/svg">
	<mask id="mask0_225_46" style="mask-type:alpha" maskUnits="userSpaceOnUse" x="0" y="0" width="20" height="20">
		<rect width="20" height="20" fill="#D9D9D9" />
	</mask>
	<g mask="url(#mask0_225_46)">
		<path
			d="M11.625 18.25C11.4167 18.3611 11.2049 18.3785 10.9896 18.3021C10.7743 18.2257 10.6111 18.0834 10.5 17.875L9.24999 15.375C9.13888 15.1667 9.12152 14.9549 9.19791 14.7396C9.2743 14.5243 9.41666 14.3611 9.62499 14.25C9.83332 14.1389 10.0451 14.1215 10.2604 14.1979C10.4757 14.2743 10.6389 14.4167 10.75 14.625L12 17.125C12.1111 17.3334 12.1285 17.5452 12.0521 17.7604C11.9757 17.9757 11.8333 18.1389 11.625 18.25ZM16.625 18.25C16.4167 18.3611 16.2049 18.3785 15.9896 18.3021C15.7743 18.2257 15.6111 18.0834 15.5 17.875L14.25 15.375C14.1389 15.1667 14.1215 14.9549 14.1979 14.7396C14.2743 14.5243 14.4167 14.3611 14.625 14.25C14.8333 14.1389 15.0451 14.1215 15.2604 14.1979C15.4757 14.2743 15.6389 14.4167 15.75 14.625L17 17.125C17.1111 17.3334 17.1285 17.5452 17.0521 17.7604C16.9757 17.9757 16.8333 18.1389 16.625 18.25ZM6.62499 18.25C6.41666 18.3611 6.20485 18.3785 5.98957 18.3021C5.7743 18.2257 5.6111 18.0834 5.49999 17.875L4.24999 15.375C4.13888 15.1667 4.12152 14.9549 4.19791 14.7396C4.2743 14.5243 4.41666 14.3611 4.62499 14.25C4.83332 14.1389 5.04513 14.1215 5.26041 14.1979C5.47568 14.2743 5.63888 14.4167 5.74999 14.625L6.99999 17.125C7.1111 17.3334 7.12846 17.5452 7.05207 17.7604C6.97568 17.9757 6.83332 18.1389 6.62499 18.25ZM6.24999 13.3334C4.9861 13.3334 3.90624 12.8854 3.01041 11.9896C2.11457 11.0938 1.66666 10.0139 1.66666 8.75002C1.66666 7.59724 2.0486 6.5903 2.81249 5.72919C3.57638 4.86808 4.52082 4.36113 5.64582 4.20835C6.09027 3.41669 6.69791 2.79516 7.46874 2.34377C8.23957 1.89238 9.08332 1.66669 9.99999 1.66669C11.25 1.66669 12.3368 2.06599 13.2604 2.8646C14.184 3.66321 14.743 4.65974 14.9375 5.85419C15.8958 5.93752 16.7014 6.33335 17.3542 7.04169C18.0069 7.75002 18.3333 8.59724 18.3333 9.58335C18.3333 10.625 17.9687 11.5104 17.2396 12.2396C16.5104 12.9688 15.625 13.3334 14.5833 13.3334H6.24999Z"
			fill="black" />
	</g>
</svg>
