<svg width="20" height="20" viewBox="0 0 20 20" fill="none" xmlns="http://www.w3.org/2000/svg">
	<mask id="mask0_225_28" style="mask-type:alpha" maskUnits="userSpaceOnUse" x="0" y="0" width="20" height="20">
		<rect width="20" height="20" fill="#D9D9D9" />
	</mask>
	<g mask="url(#mask0_225_28)">
		<path
			d="M10 18.3333C8.84723 18.3333 7.86459 17.9271 7.05209 17.1146C6.23959 16.3021 5.83334 15.3194 5.83334 14.1667C5.83334 13.5 5.97918 12.8785 6.27084 12.3021C6.56251 11.7257 6.97223 11.2361 7.50001 10.8333V4.16666C7.50001 3.47221 7.74307 2.88193 8.22918 2.39582C8.71529 1.90971 9.30557 1.66666 10 1.66666C10.6945 1.66666 11.2847 1.90971 11.7708 2.39582C12.257 2.88193 12.5 3.47221 12.5 4.16666V10.8333C13.0278 11.2361 13.4375 11.7257 13.7292 12.3021C14.0208 12.8785 14.1667 13.5 14.1667 14.1667C14.1667 15.3194 13.7604 16.3021 12.9479 17.1146C12.1354 17.9271 11.1528 18.3333 10 18.3333ZM9.16668 9.16666H10.8333V8.33332H10V7.49999H10.8333V5.83332H10V4.99999H10.8333V4.16666C10.8333 3.93055 10.7535 3.73263 10.5938 3.57291C10.434 3.41318 10.2361 3.33332 10 3.33332C9.7639 3.33332 9.56598 3.41318 9.40626 3.57291C9.24654 3.73263 9.16668 3.93055 9.16668 4.16666V9.16666Z"
			fill="black" />
	</g>
</svg>
