<svg xmlns="http://www.w3.org/2000/svg" height="40" viewBox="0 -960 960 960" width="40"><path fill="#DC2D27" d="M458.771-140.072q-55.836 0-90.735-32.565-34.898-32.565-34.898-90.5h81.246q0 22.84 11.022 34.996 11.021 12.156 33.304 12.156 22.95 0 34.051-11.475 11.102-11.474 11.102-35.661 0-24.186-11.114-36.638-11.113-12.451-33.959-12.451H77.05v-75.913h381.74q55.829 0 88.327 32.426 32.499 32.425 32.499 92.56 0 57.935-32.504 90.5t-88.341 32.565ZM77.051-569.877v-75.913H620.79q32.515 0 49.127-16.95 16.612-16.949 16.612-52.137 0-35.189-16.616-52.243-16.616-17.054-49.138-17.054-33.188 0-49.79 19.065-16.601 19.065-16.601 47.58h-75.913q0-62.558 39.344-102.479 39.344-39.92 102.895-39.92 62.884 0 102.228 39 39.345 39 39.345 106.145t-39.362 106.026q-39.361 38.88-102.131 38.88H77.05Zm666.406 341.892v-75.754q31.203 0 47.471-18.402 16.268-18.403 16.268-50.924 0-33.189-17.612-49.79-17.612-16.602-48.794-16.602H77.05v-75.753h663.74q63.437 0 102.798 38.706 39.361 38.707 39.361 103.453 0 66.559-38.027 105.812-38.028 39.254-101.465 39.254Z"/></svg>
