<svg width="20" height="20" viewBox="0 0 20 20" fill="none" xmlns="http://www.w3.org/2000/svg">
	<mask id="mask0_225_52" style="mask-type:alpha" maskUnits="userSpaceOnUse" x="0" y="0" width="20" height="20">
		<rect width="20" height="20" fill="#D9D9D9" />
	</mask>
	<g mask="url(#mask0_225_52)">
		<path
			d="M8.37501 11.625L2.97918 9.43752C2.79862 9.36808 2.66668 9.26044 2.58334 9.1146C2.50001 8.96877 2.45834 8.81947 2.45834 8.66669C2.45834 8.51391 2.50348 8.3646 2.59376 8.21877C2.68404 8.07294 2.81945 7.9653 3.00001 7.89585L15.7917 3.14585C15.9583 3.07641 16.1181 3.06252 16.2708 3.10419C16.4236 3.14585 16.5556 3.22224 16.6667 3.33335C16.7778 3.44446 16.8542 3.57641 16.8958 3.72919C16.9375 3.88196 16.9236 4.04169 16.8542 4.20835L12.1042 17C12.0347 17.1806 11.9271 17.316 11.7813 17.4063C11.6354 17.4965 11.4861 17.5417 11.3333 17.5417C11.1806 17.5417 11.0313 17.5 10.8854 17.4167C10.7396 17.3334 10.632 17.2014 10.5625 17.0209L8.37501 11.625Z"
			fill="black" />
	</g>
</svg>
