<svg width="20" height="20" viewBox="0 0 20 20" fill="none" xmlns="http://www.w3.org/2000/svg">
	<mask id="mask0_225_40" style="mask-type:alpha" maskUnits="userSpaceOnUse" x="0" y="0" width="20" height="20">
		<rect width="20" height="20" fill="#D9D9D9" />
	</mask>
	<g mask="url(#mask0_225_40)">
		<path
			d="M9.58332 16.6667C9.13888 16.6667 8.72568 16.5556 8.34374 16.3333C7.96179 16.1111 7.65277 15.8056 7.41666 15.4167C7.26388 15.1389 7.26041 14.8611 7.40624 14.5833C7.55207 14.3056 7.77777 14.1667 8.08332 14.1667C8.26388 14.1667 8.4236 14.2222 8.56249 14.3333C8.70138 14.4444 8.82638 14.5694 8.93749 14.7083C9.00693 14.8056 9.10068 14.8785 9.21874 14.9271C9.3368 14.9757 9.45832 15 9.58332 15C9.81943 15 10.0174 14.9201 10.1771 14.7604C10.3368 14.6007 10.4167 14.4028 10.4167 14.1667C10.4167 13.9306 10.3368 13.7326 10.1771 13.5729C10.0174 13.4132 9.81943 13.3333 9.58332 13.3333H2.49999C2.26388 13.3333 2.06596 13.2535 1.90624 13.0938C1.74652 12.934 1.66666 12.7361 1.66666 12.5C1.66666 12.2639 1.74652 12.066 1.90624 11.9063C2.06596 11.7465 2.26388 11.6667 2.49999 11.6667H9.58332C10.2778 11.6667 10.868 11.9097 11.3542 12.3958C11.8403 12.8819 12.0833 13.4722 12.0833 14.1667C12.0833 14.8611 11.8403 15.4514 11.3542 15.9375C10.868 16.4236 10.2778 16.6667 9.58332 16.6667ZM2.49999 8.33333C2.26388 8.33333 2.06596 8.25347 1.90624 8.09375C1.74652 7.93403 1.66666 7.73611 1.66666 7.5C1.66666 7.26389 1.74652 7.06597 1.90624 6.90625C2.06596 6.74653 2.26388 6.66667 2.49999 6.66667H12.9167C13.2639 6.66667 13.559 6.54514 13.8021 6.30208C14.0451 6.05903 14.1667 5.76389 14.1667 5.41667C14.1667 5.06944 14.0451 4.77431 13.8021 4.53125C13.559 4.28819 13.2639 4.16667 12.9167 4.16667C12.6944 4.16667 12.4861 4.21875 12.2917 4.32292C12.0972 4.42708 11.9444 4.57639 11.8333 4.77083C11.7361 4.9375 11.618 5.08681 11.4792 5.21875C11.3403 5.35069 11.1736 5.41667 10.9792 5.41667C10.7014 5.41667 10.4757 5.3125 10.3021 5.10417C10.1285 4.89583 10.0833 4.67361 10.1667 4.4375C10.3611 3.85417 10.7118 3.38542 11.2187 3.03125C11.7257 2.67708 12.2917 2.5 12.9167 2.5C13.7222 2.5 14.4097 2.78472 14.9792 3.35417C15.5486 3.92361 15.8333 4.61111 15.8333 5.41667C15.8333 6.22222 15.5486 6.90972 14.9792 7.47917C14.4097 8.04861 13.7222 8.33333 12.9167 8.33333H2.49999ZM16.625 14.75C16.3472 14.875 16.0764 14.8576 15.8125 14.6979C15.5486 14.5382 15.4167 14.3056 15.4167 14C15.4167 13.8056 15.4826 13.6424 15.6146 13.5104C15.7465 13.3785 15.8958 13.2639 16.0625 13.1667C16.2569 13.0556 16.4062 12.9028 16.5104 12.7083C16.6146 12.5139 16.6667 12.3056 16.6667 12.0833C16.6667 11.7361 16.5451 11.441 16.3021 11.1979C16.059 10.9549 15.7639 10.8333 15.4167 10.8333H2.49999C2.26388 10.8333 2.06596 10.7535 1.90624 10.5938C1.74652 10.434 1.66666 10.2361 1.66666 10C1.66666 9.76389 1.74652 9.56597 1.90624 9.40625C2.06596 9.24653 2.26388 9.16667 2.49999 9.16667H15.4167C16.2222 9.16667 16.9097 9.45139 17.4792 10.0208C18.0486 10.5903 18.3333 11.2778 18.3333 12.0833C18.3333 12.6667 18.1805 13.1979 17.875 13.6771C17.5694 14.1563 17.1528 14.5139 16.625 14.75Z"
			fill="black" />
	</g>
</svg>
