<?xml version="1.0" encoding="UTF-8"?>
<svg version="1.1" xmlns="http://www.w3.org/2000/svg" viewBox="0 0 210 164" width="210" height="164">
	<rect width="106" height="106" />
	<rect fill="#ED1C2E" x="106" width="104" height="106" />
	<path fill="#fff"
		d="m126 34c-0.8 0.01-1.6 0.31-2.1 0.8-0.4 0.4-0.6 0.9-0.6 1.47 0 0.89 0.4 1.51 1.4 2.1v-0.02l1.6 0.92c0.7 0.4 1.3 0.81 1.3 1.63 0 0.45-0.1 0.81-0.4 1.08-0.4 0.36-1 0.54-1.7 0.51-0.9-0.01-1.4-0.05-2.1-0.58l-0.1-0.11v1.15l0.1 0.02c0.6 0.24 1.1 0.25 1.7 0.27h0.4c0.8 0 2.1-0.13 2.8-0.89 0.4-0.41 0.6-0.95 0.6-1.61-0.1-1.39-0.8-1.81-1.7-2.33l-0.4-0.18-1.4-0.81c-0.5-0.33-0.9-0.65-1-1.23 0-0.34 0.1-0.66 0.4-0.92 0.3-0.38 1-0.54 1.5-0.56 0.7 0.02 1.2 0.13 1.6 0.59l0.2 0.12v-1.14l-0.1-0.02c-0.6-0.23-1-0.24-1.5-0.26h-0.3-0.2zm58.4 0.08v0.12l0.1 0.33v0.77 0.11 5.64l-6.1-6.95h-1.6l0.2 0.14c0.1 0.07 0.2 0.13 0.2 0.24l0.1 0.07c0.1 0.11 0.1 0.21 0.1 0.35v7.39 0.46c-0.1 0.11-0.1 0.18-0.2 0.3l-0.1 0.12h1.4v-0.1l-0.1-0.12v-0.04-0.22c-0.1-0.38-0.1-0.38-0.1-0.63v-6.44l7.1 7.9v-8.48c0-0.18 0-0.27 0.1-0.46 0-0.14 0-0.24 0.1-0.39v-0.11h-1.2zm-32.3 0.01 0.1 0.14 0.1 0.3v0.88 5.65l-6.1-6.95h-1.6l0.2 0.14c0.2 0.07 0.2 0.13 0.3 0.25v0.05c0 0.11 0.1 0.21 0.1 0.34v7.4c0 0.17 0 0.29-0.1 0.46 0 0.11 0 0.17-0.1 0.29
		l-0.1 0.12h1.4l-0.1-0.2c0-0.1-0.1-0.17-0.1-0.28-0.1-0.38-0.1-0.37-0.1-0.63v-6.43l7.2 7.9v-8.48-0.46c0-0.16 0.1-0.24 0.1-0.38l0.1-0.11h-1.3zm-12.7 0.01v0.12c0.1 0.09 0.1 0.16 0.1 0.28s0 0.22-0.1 0.38l-1.9 5.78-2.2-5.85c0-0.16-0.1-0.24 0-0.38 0-0.08 0-0.12 0.1-0.19v-0.02-0.1h-1.9l0.1 0.13c0.1 0.09 0.2 0.16 0.2 0.27l0.1 0.08c0.1 0.1 0.1 0.15 0.2 0.24l0.4 1.09-1.8 4.72-2.1-5.95v-0.23c0.1-0.1 0.1-0.14 0.1-0.23l0.1-0.12h-2l0.2 0.14c0.1 0.08 0.2 0.14 0.3 0.27v-0.01c0.1 0.11 0.2 0.18 0.2 0.31l3.3 8.62 2.2-6.3 2.4 6.25 3-8.42c0-0.09 0.1-0.15 0.1-0.23v-0.02-0.01c0.2-0.24 0.2-0.35 0.4-0.5l0.1-0.12h-1.6zm22 0.01v0.11c0.1 0.16 0.1 0.26 0.1 0.45v-0.01 0.27 0.11 5.09c0 0.39 0.1 0.77 0.3 1.13 0.1 0.36 0.3 0.68 0.6 0.95 0.7 0.7 1.7 1.09 2.7 1.09h0.1c1.9-0.04 3.3-1.36 3.3-3.07v-5.31-0.05-0.24c0-0.13 0.1-0.25 0.1-0.37v-0.11h-1.4v0.11c0.1 0.13 0.1 0.21 0.1 0.38 0.1 0.14 0.1 0.29 0.1 0.43v5.08c0 0.29-0.1 0.58-0.2 0.85s-0.3 0.52-0.5 0.72-0.4 0.36-0.7 0.46c-0.3 0.11-0.6 0.15-0.8 0.14-0.4 0.01-0.7-0.05-1-0.17
		s-0.6-0.3-0.9-0.53c-0.2-0.2-0.3-0.45-0.5-0.73-0.1-0.27-0.1-0.57-0.2-0.86v-5.15-0.05c0-0.08 0-0.16 0.1-0.26v-0.05c0-0.1 0-0.19 0.1-0.3v-0.11h-1.4zm-6.9 0.02 0.1 0.12c0.1 0.12 0.1 0.19 0.2 0.32l-0.1-0.01c0.1 0.15 0.2 0.32 0.2 0.49v7.29c0 0.16-0.1 0.27-0.1 0.43v0.04c-0.1 0.07-0.1 0.14-0.1 0.2l-0.1 0.12h2.5c1.8 0 3-0.99 3-2.6 0-1.16-0.6-1.93-1.6-2.28l-0.2-0.08 0.2-0.12c0.7-0.42 1-0.92 1-1.73-0.1-1.23-1-2.19-2.2-2.19h-2.8zm15.4 0.03 0.1 0.19c0 0.1 0.1 0.17 0.1 0.27 0 0.27 0.1 0.55 0.1 0.83v6.36l-0.1 0.89c0 0.09 0 0.15-0.1 0.23v0.03l-0.1 0.2h1.6l-0.1-0.22v-0.05c-0.1-0.08-0.1-0.15-0.1-0.27v-0.08-0.28-4.02c0 0.05 0.1 0.12 0.1 0.19l0.1 0.11 3.6 4.65h1.7l-0.7-0.49c-0.1-0.13-0.3-0.31-0.4-0.49-0.1-0.11-0.2-0.23-0.3-0.34l-2.1-2.71c-0.2-0.24-0.4-0.47-0.7-0.68 0.6 0.02 1.1-0.16 1.5-0.51 0.2-0.21 0.4-0.46 0.6-0.76 0.1-0.29 0.2-0.6 0.2-0.93 0-0.26 0-0.53-0.1-0.77-0.1-0.25-0.3-0.48-0.4-0.67-0.5-0.43-1.1-0.68-1.7-0.68h-2.8zm-28.2 0.02 0.1 0.11c0.1 0.12 0.1 0.25 0.2 0.38v-0.05c0 0.14 0.1 0.29 0.1 0.44v7.2
		c0 0.18 0 0.28-0.1 0.44 0 0.1-0.1 0.17-0.1 0.27l-0.1 0.12h1.6v-0.12c-0.1-0.17-0.2-0.22-0.2-0.31v-1.08-6.5c0-0.12 0-0.2 0.1-0.47l0.1-0.33v-0.1h-1.7zm45.1 0 0.2 0.12c0.1 0.08 0.1 0.13 0.1 0.22l-0.1-0.06c0.1 0.11 0.1 0.23 0.1 0.35v7.54 0.31c-0.1 0.11-0.1 0.21-0.2 0.31l-0.1 0.12h5.3l0.4-1.26-0.2 0.12c-0.1 0.09-0.2 0.15-0.3 0.19-0.4 0.12-0.6 0.14-1 0.14h-2.7v-3.81h2.3c0.1 0 0.2 0 0.4 0.02 0.2 0.05 0.3 0.08 0.5 0.16l0.1 0.06v-1.04h-3.3v-2.71h2.5c0.1 0 0.2-0.01 0.4 0.04 0.1 0.05 0.2 0.1 0.3 0.19l0.1 0.13v-1.14h-4.8zm-14.8 0.6h0.1c1.4 0.06 1.6 0.73 1.7 1.46 0 0.94-0.6 1.55-1.8 1.64-0.3 0.01-0.5 0-0.7-0.02v-2.94c0.2-0.09 0.5-0.15 0.7-0.14zm-16.1 0.08h0.8c1 0 1.7 0.54 1.7 1.46 0 0.45-0.2 0.83-0.4 1.1-0.3 0.31-0.8 0.54-1.4 0.54h-0.7v-3.1zm0.8 3.76c1.5 0.04 2.2 0.68 2.3 1.89 0 1.21-1.1 1.86-2.2 1.93-0.3 0.02-0.6-0.01-0.8-0.09v-3.67c0.2-0.06 0.4-0.06 0.7-0.06zm34.8 10.5v0.04c-1.2 0-2.3 0.46-3.2 1.3s-1.4 2.07-1.4 3.25c0 1.2 0.5 2.36 1.3 3.22 0.9 0.86 2 1.36 3.2 1.38h0.1c1.2 0 2.4-0.47 3.3-1.33 0.4-0.43 0.7-0.94
		1-1.51 0.2-0.57 0.3-1.18 0.3-1.79 0-1.19-0.5-2.33-1.3-3.19-0.9-0.85-2-1.34-3.2-1.37h-0.1zm-30.1 0.14c-0.9 0-1.7 0.3-2.2 0.8-0.4 0.4-0.6 0.9-0.6 1.47 0 0.89 0.4 1.52 1.4 2.11l1.6 0.92c0.7 0.4 1.3 0.81 1.3 1.63 0 0.45-0.1 0.81-0.4 1.08-0.4 0.36-1 0.54-1.8 0.51l0.1-0.02c-0.8-0.01-1.4-0.05-2-0.58l-0.2-0.11v1.15l0.1 0.01c0.6 0.25 1.1 0.26 1.7 0.27h0.1l0.2 0.01h0.1c0.8 0 2.1-0.13 2.8-0.89 0.4-0.41 0.6-0.95 0.6-1.61 0-1.39-0.8-1.8-1.7-2.33v-0.01l-0.3-0.18-1.5-0.81c-0.5-0.32-0.9-0.65-1-1.23 0-0.34 0.1-0.66 0.4-0.92 0.3-0.35 0.9-0.56 1.4-0.56l0.1 0.01c0.7 0.02 1.2 0.12 1.6 0.58l0.2 0.13v-1.14l-0.1-0.02c-0.5-0.19-1-0.28-1.5-0.26l-0.3-0.01h-0.1zm-47.7 0.03v0.11c0.1 0.15 0.1 0.3 0.1 0.45 0.1 0.09 0.1 0.18 0.1 0.28v5.19c0 0.39 0 0.78 0.2 1.14 0.1 0.36 0.4 0.68 0.6 0.95 0.8 0.68 1.7 1.05 2.7 1.03l0.1 0.05c1.9-0.04 3.3-1.36 3.3-3.07v-5.29-0.07-0.23c0-0.13 0.1-0.26 0.1-0.38l0.1-0.11h-1.5v0.11c0.1 0.12 0.1 0.25 0.2 0.38v0.36 0.07 5.08c0 0.29-0.1 0.58-0.2 0.85s-0.3 0.51-0.5 0.71c-0.2 0.21-0.4 0.37-0.7 0.47
		s-0.6 0.15-0.8 0.13c-0.7 0.03-1.4-0.23-1.9-0.69-0.4-0.43-0.6-1-0.6-1.6v-5.16-0.04-0.26c0-0.15 0-0.23 0.1-0.35v-0.11h-1.4zm15.8 0.04v0.12l0.1 0.33v0.88 5.65l-6.1-6.95h-1.6l0.3 0.14c0.1 0.06 0.1 0.14 0.2 0.25 0.1 0.1 0.1 0.2 0.1 0.34v7.39c0 0.18 0 0.29-0.1 0.47 0 0.1 0 0.17-0.1 0.29l-0.1 0.12h1.4l-0.1-0.1v-0.11-0.02-0.04c0-0.07 0-0.13-0.1-0.21v-0.64-6.38l7.1 7.91v-8.49-0.46c0.1-0.13 0.1-0.26 0.1-0.38l0.1-0.11h-1.2zm38.3 0-0.3 1.15 0.2-0.09c0.1-0.09 0.3-0.15 0.4-0.18 0.1-0.04 0.2-0.05 0.3-0.05v0.02h2.2v7.48 0.01c0 0.1 0 0.19-0.1 0.29 0 0.11 0 0.18-0.1 0.27v0.11h1.6l-0.1-0.12c0-0.12-0.1-0.19-0.1-0.29v-0.39-7.41h1.8c0.2 0 0.3 0.03 0.5 0.09 0.2 0.03 0.3 0.07 0.4 0.13l0.1 0.06-0.1-1.01v-0.07h-6.7zm13.2 0.02v0.08 0.2c0 0.07 0 0.16-0.1 0.25l-2 3.09-1.7-2.89-0.1-0.04c0-0.11-0.1-0.19-0.1-0.31-0.1-0.1-0.1-0.16-0.1-0.25v-0.03-0.08h-1.7l0.2 0.13c0.1 0.08 0.1 0.14 0.2 0.22v0.03l0.2 0.32 2.4 3.77v3.95 0.23 0.04 0.21l-0.1 0.1h1.4l-0.1-0.1v-0.21-0.05c0-0.11-0.1-0.18-0.1-0.28v-3.9l2.5-3.65 0.3-0.38
		c0-0.11 0.1-0.19 0.2-0.32l0.2-0.13h-1.5zm16.2 0.01 0.1 0.11v0.05c0.1 0.06 0.1 0.12 0.1 0.2v0.03c0.1 0.09 0.1 0.2 0.1 0.31v7.42 0.15 0.29c0 0.12-0.1 0.23-0.1 0.33l-0.1 0.11h1.5v-0.09-0.11l-0.1-0.03v-0.12l-0.1-1.08v-3.16h2.8c0.1 0 0.2 0.02 0.3 0.04l0.2 0.05v-0.9l-3.3-0.05v-2.75h2.4 0.1v0.01c0.2 0 0.3 0 0.4 0.03 0.1 0.02 0.1 0.06 0.2 0.12 0 0.02 0 0.03 0.1 0.05l0.1 0.11v-1.12h-4.7zm-32.2 0.01 0.1 0.12c0.1 0.13 0.1 0.23 0.2 0.38v0.43 7.21 0.43c-0.1 0.11-0.1 0.16-0.2 0.27l-0.1 0.12h1.7l-0.1-0.12c-0.1-0.16-0.1-0.21-0.1-0.3-0.1-0.29-0.1-0.69-0.1-1.14v-6.5c0-0.13 0-0.2 0.1-0.47v-0.03 0.02l0.2-0.32v0.01-0.11h-1.7zm-33 0.01 0.1 0.12c0.1 0.11 0.1 0.24 0.2 0.38 0 0.14 0.1 0.29 0 0.43v7.21 0.43c-0.1 0.11-0.1 0.18-0.2 0.27v0.12h1.6v-0.12c-0.1-0.08-0.2-0.19-0.2-0.3v-1.08-6.51-0.47l0.1-0.05 0.1-0.32 0.1-0.11h-1.8zm2.5 0.01 0.2 0.15c0.2 0.07 0.2 0.14 0.3 0.26 0 0.05 0.1 0.09 0.1 0.14v0.07l4.3 8.67 3.9-8.38c0.1-0.12 0.1-0.23 0.2-0.34 0.1-0.15 0.2-0.3 0.3-0.43l0.1-0.13h-1.5v0.1 0.3 0.23 0.03l-0.1 0.11-2.9 6.26-3.1-6.49
		v-0.02c-0.1-0.07-0.1-0.12-0.1-0.19 0-0.08 0-0.11 0.1-0.17v-0.17h-1.8zm17.1 0.06 0.1 0.19c0 0.09 0.1 0.17 0.1 0.27 0 0.28 0.1 0.56 0.1 0.84v6.36l-0.1 0.89c0 0.1 0 0.16-0.1 0.26l-0.1 0.19h1.6l-0.1-0.22v-0.03c0-0.1-0.1-0.17-0.1-0.28v-0.37-4.02c0.1 0.06 0.1 0.11 0.1 0.17l0.1 0.02v0.1l3.6 4.66h1.7l-0.7-0.49c-0.1-0.13-0.3-0.3-0.4-0.48-0.1-0.11-0.2-0.23-0.3-0.33l-2.1-2.73c-0.3-0.28-0.4-0.44-0.7-0.69 0.6 0.03 1.1-0.15 1.5-0.5 0.2-0.21 0.4-0.47 0.6-0.76 0.1-0.29 0.2-0.6 0.2-0.92 0-0.27 0-0.53-0.1-0.78s-0.3-0.48-0.4-0.67c-0.5-0.43-1.1-0.68-1.7-0.68h-2.8zm-6.8 0.02 0.2 0.14c0 0.07 0.1 0.13 0.1 0.21 0.1 0.11 0.1 0.23 0.1 0.35v7.42 0.13 0.3c-0.1 0.11-0.1 0.2-0.2 0.3v-0.04l-0.1 0.12h5.3l0.4-1.26-0.2 0.12c-0.1 0.1-0.2 0.14-0.4 0.18-0.3 0.12-0.5 0.14-0.9 0.14h-2.7v-3.8h2.2c0.2 0 0.3 0 0.4 0.02 0.2 0.03 0.4 0.09 0.5 0.16l0.1 0.05v-1.04h-3.3v-2.7h2.3l0.2-0.01c0.1-0.01 0.2-0.01 0.4 0.04 0.1 0.05 0.2 0.1 0.3 0.19l0.1 0.13v-1.15h-4.8zm46.7 0.57c2 0.04 3.4 1.63 3.5 3.7 0 0.51-0.1 1.02-0.3 1.5s-0.5 0.91-0.9 1.27
		c-0.6 0.62-1.4 0.97-2.3 0.97-2-0.04-3.5-1.7-3.4-3.76 0-1.79 1.2-3.67 3.4-3.67v-0.01zm-37.7 0.04c1.4 0.05 1.6 0.77 1.7 1.46 0 0.93-0.7 1.54-1.9 1.63-0.2 0.01-0.4 0.01-0.7-0.01l0.1-2.94c0.2-0.13 0.5-0.14 0.8-0.14zm24.6 14.3v0.05h-0.2c-1.1 0-2.3 0.46-3.1 1.3-0.9 0.86-1.4 2.07-1.4 3.25 0 1.2 0.4 2.35 1.3 3.21 0.8 0.86 1.9 1.36 3.2 1.39h0.1c1.2 0 2.3-0.48 3.2-1.33 0.5-0.43 0.8-0.95 1-1.51 0.2-0.57 0.4-1.18 0.3-1.79 0-1.19-0.4-2.34-1.3-3.19-0.8-0.85-2-1.35-3.1-1.38zm-16.2 0.06v0.05c-0.6-0.02-1.2 0.09-1.8 0.31-0.5 0.22-1 0.56-1.5 0.98-0.9 0.87-1.4 2.07-1.4 3.25 0 1.2 0.5 2.36 1.3 3.22 0.9 0.86 2 1.36 3.2 1.39h0.1c1.2 0 2.4-0.55 3.3-1.33 0.4-0.43 0.8-0.95 1-1.52s0.3-1.17 0.3-1.79c0-1.19-0.5-2.33-1.3-3.18-0.9-0.86-2-1.35-3.2-1.38zm26.7 0c-2.9 0-4.8 1.86-4.9 4.64 0 1.22 0.5 2.36 1.4 3.21 0.9 0.9 2.1 1.38 3.5 1.38h0.2c1.3-0.05 2.4-0.51 3-0.89l0.1-0.02-0.1-3.1c0-0.09 0-0.15 0.1-0.23v-0.01c0-0.11 0-0.17 0.1-0.28l0.1-0.13h-1.8l0.2 0.14c0.1 0.14 0.2 0.22 0.2 0.4 0.1 0.28 0.1 0.52 0.1 0.8v1.87
		c-0.7 0.39-1.2 0.54-1.9 0.52-0.5 0.03-1.1-0.04-1.5-0.2-0.5-0.17-1-0.44-1.4-0.78-0.7-0.68-1.1-1.63-1.2-2.68 0-0.5 0.1-0.99 0.3-1.46 0.1-0.47 0.4-0.9 0.8-1.26 0.6-0.68 1.5-1.09 2.5-1.05 0.8 0 1.6 0.07 2.5 0.56l0.1 0.07v-1.1l-0.1-0.02c-0.8-0.32-1.4-0.35-2.3-0.38zm-53.2 0.06c-0.1 0-0.2 0-0.3 0.01h-0.1c-0.6-0.02-1.3 0.1-2 0.35-0.6 0.25-1.2 0.62-1.7 1.09-0.4 0.43-0.7 0.93-0.9 1.48-0.3 0.55-0.4 1.15-0.4 1.74 0 1.28 0.5 2.44 1.4 3.28 0.9 0.85 2.2 1.33 3.5 1.33h0.3 0.1c0.8-0.03 1.3-0.04 2.1-0.32v-0.01l0.6-1.44-0.2 0.15c-0.8 0.51-1.7 0.77-2.6 0.75-1.2 0.02-2.2-0.36-3-1.11-0.3-0.34-0.6-0.75-0.8-1.2-0.2-0.46-0.2-0.94-0.2-1.43 0-1.08 0.4-2.06 1.1-2.76 0.7-0.71 1.7-1.06 2.7-1.06 0.8-0.02 1.5 0.17 2.2 0.55l0.1 0.07v-1.06l-0.1-0.02c-0.6-0.24-1.2-0.38-1.8-0.39zm32.2 0.08 0.1 0.13c0.1 0.13 0.2 0.23 0.2 0.36 0 0.16 0.1 0.26 0.1 0.43v7.33c0 0.14 0 0.24-0.1 0.38 0 0.08-0.1 0.14-0.1 0.23l-0.1 0.13h5.3l0.4-1.08-0.1-0.08c-0.2 0.18-0.2 0.18-0.3 0.2v0.05c-0.2 0.07-0.4 0.11-0.6 0.11l-3.3 0.01v-7.21c-0.1-0.21 0-0.36
		0-0.56 0-0.11 0.1-0.22 0.1-0.32l0.1-0.11h-1.7zm30.3 0.01 0.1 0.1v0.2c0 0.06-0.1 0.15-0.1 0.25l-2 3.08-1.8-2.89v-0.04c-0.1-0.1-0.1-0.18-0.2-0.3v-0.26-0.03-0.08h-1.7l0.1 0.13c0.2 0.09 0.2 0.15 0.3 0.24v0.01l0.2 0.32 2.4 3.76v3.96 0.23 0.04c0 0.05 0 0.12-0.1 0.21v0.1h1.3v-0.1-0.16-0.04l-0.1-0.06v-0.28-3.9l2.7-4.03c0.1-0.12 0.2-0.22 0.3-0.32l0.1-0.14h-1.5zm-43.1 0.01 0.1 0.21v0.29c0.1 0.29 0.1 0.59 0.1 0.88v5.65l-6.1-7.01h-1.7l0.3 0.14c0.1 0.07 0.2 0.13 0.2 0.25 0.1 0.11 0.1 0.2 0.1 0.34v7.39c0 0.18 0 0.29-0.1 0.46 0 0.12 0 0.18-0.1 0.28v0.01l-0.1 0.12h1.4l-0.1-0.2v-0.27c-0.1-0.38-0.1-0.38-0.1-0.64v-6.38l7.1 7.91v-8.48c0-0.18 0-0.27 0.1-0.46 0-0.14 0-0.23 0.1-0.38v-0.11h-1.2zm-32 0.01-6.8 0.01-0.2 1.15 0.1-0.09c0.2-0.09 0.3-0.15 0.5-0.19 0.1-0.03 0.1-0.04 0.2-0.04h2.2v7.47 0.31c0 0.09-0.1 0.14-0.1 0.21v0.06l-0.1 0.11h1.7l-0.1-0.12c-0.1-0.11-0.1-0.19-0.1-0.29-0.1-0.27-0.1-0.29-0.1-0.38v-7.41h1.9c0.2 0 0.3 0.02 0.5 0.08 0.1 0.03 0.2 0.07 0.4 0.13l0.1 0.07-0.1-1.08zm1.3 0.08 0.2 0.13
		c0.1 0.08 0.1 0.13 0.1 0.22 0.1 0.12 0.1 0.22 0.1 0.35v7.55 0.3c-0.1 0.11-0.1 0.2-0.2 0.31l-0.1 0.12h5.3l0.4-1.26-0.1 0.12c-0.2 0.09-0.3 0.15-0.4 0.18l-0.1-0.05c-0.3 0.1-0.6 0.15-1 0.14h-2.7v-3.81h2.3c0.1 0 0.3 0.01 0.4 0.02 0.2 0.04 0.3 0.09 0.5 0.17l0.1 0.05v-1.04h-3.3v-2.71h2.4 0.1c0.1-0.01 0.2-0.01 0.4 0.04 0.1 0.05 0.2 0.09 0.3 0.19l0.1 0.13v-1.15h-4.8zm20.4 0 0.1 0.13c0.1 0.11 0.2 0.24 0.2 0.38 0.1 0.12 0.1 0.21 0.1 0.34v0.01 2.67h-4.7v-2.53-0.04c0-0.21 0-0.35 0.1-0.5v-0.04-0.07c0-0.06 0-0.11 0.1-0.18l0.1-0.11h-1.7l0.1 0.12c0.1 0.13 0.2 0.2 0.2 0.33 0.1 0.16 0.1 0.27 0.1 0.43v7.4c0 0.14 0 0.24-0.1 0.36 0 0.08-0.1 0.16-0.1 0.23l-0.1 0.12h1.7l-0.2-0.18c0-0.07-0.1-0.13-0.1-0.2-0.1-0.29 0-0.4 0-0.54v-0.19-3.5h4.6v4.17c0 0.13-0.1 0.25-0.1 0.35l-0.2 0.12h1.7l-0.1-0.11c-0.1-0.1-0.1-0.22-0.1-0.33l-0.2-0.18v-0.38-7.04-0.57c0.1-0.12 0.1-0.24 0.2-0.36v-0.11h-1.6zm33.5 0.62c1.9 0.03 3.4 1.62 3.4 3.69 0 0.52-0.1 1.03-0.3 1.5-0.2 0.48-0.5 0.91-0.8 1.28-0.6 0.61-1.5 0.96-2.3 0.96-2-0.04-3.5-1.69-3.5-3.76
		0.1-1.79 1.3-3.67 3.4-3.67h0.1zm-16.2 0.05c2 0.04 3.5 1.63 3.5 3.7 0 0.51-0.1 1.03-0.3 1.5-0.2 0.48-0.5 0.91-0.9 1.28-0.6 0.61-1.4 0.95-2.3 0.96-2-0.04-3.4-1.7-3.4-3.76 0-1.79 1.2-3.67 3.4-3.67v-0.01z" />
	<path fill="#fff"
		d="m18.1 35.7c-2.34-0.0342-3.82 0.0344-6.01-0.793v-2.84c1.98 1.62 3.75 1.8 6.3 1.84 4.25 0.147 6.85-1.76 6.85-5.11 0-2.56-1.96-3.89-4.14-5.15l-4.9-2.81c-2.63-1.55-4.18-3.32-4.21-6.2-0.0343-4.25 4.14-6.77 8.68-6.63 2.13 0.0735 3.46 8e-5 5.4 0.793v2.77c-1.47-1.44-3.03-1.76-5.12-1.84-2.95-0.181-6.2 1.8-5.95 4.75 0.181 1.96 1.48 2.95 3.17 3.93l4.29 2.49c3.24 1.87 5.95 2.88 6.12 7.46 0.216 5.95-5.62 7.46-10.5 7.35zm43.6-24.7c-0.206 0.377-0.377 0.617-0.509 0.979l-8.5 23.7-6.72-18-6.59 18.2-9.01-24.3c-0.0828-0.352-0.247-0.679-0.48-0.955-0.247-0.334-0.56-0.612-0.921-0.818h4.68c-0.171 0.274-0.274 0.49-0.308 0.749-0.0686 0.274-0.0979 0.48 0 0.749l6.25 17.7 5.36-14.3-1.26-3.21c-0.171-0.49-0.411-0.646-0.686-0.989-0.222-0.276-0.46-0.538-0.715-0.784h4.64c-0.125 0.199-0.218 0.418-0.274 0.646-0.084 0.409-0.0501 0.834 0.098 1.22l6.28 17.4 5.8-17.2c0.206-0.49 0.343-0.749 0.309-1.19-0.0343-0.377-0.098-0.612-0.309-0.921h3.76c-0.329 0.382-0.624 0.791-0.882 1.22m3.85 6.22h-3.11l0.0882 0.137
		c0.166 0.243 0.292 0.511 0.372 0.794 0.106 0.292 0.156 0.601 0.147 0.911v14.6c0 0.353 0 0.588-0.137 0.906v0.0098c-0.0686 0.225-0.132 0.357-0.279 0.578l-0.0881 0.137h3.12l-0.0784-0.132-0.108-0.172c-0.098-0.147-0.186-0.274-0.216-0.47-0.0686-0.588-0.0686-1.39-0.0686-2.32v-13.2c0-0.264 0-0.421 0.166-0.98l0.284-0.686 0.0637-0.122-0.157-0.0049zm27.4-6.32c-0.0979 0.49-0.0979 0.852-0.0979 1.37l0.0342 23.9-20.6-22.8v18.9c-0.0177 0.634 0.065 1.27 0.245 1.88 0.0685 0.411 0.171 0.646 0.304 1.09h-3.24c0.245-0.343 0.377-0.49 0.49-0.921 0.137-0.509 0.137-0.852 0.137-1.37v-21.3c0-0.411-0.0685-0.715-0.274-1.09-0.143-0.334-0.395-0.61-0.715-0.784h3.76l17.9 20.4v-16.2c0-1.22 0.0686-1.96-0.171-3.24-0.0685-0.377-0.137-0.617-0.245-0.989h2.86c-0.137 0.411-0.206 0.686-0.274 1.13m-64.1 41.5c-0.852 0-1.37 0-2.22 0.206v10.9c0.801 0.273 1.65 0.378 2.49 0.308 3.34-0.206 6.62-2.08 6.51-5.77-0.098-4.37-3.41-5.56-6.79-5.67zm0.132-10.8h-2.45v9.18h2.22c3.72 0 5.43-1.96 5.32-4.78-0.137-2.56-1.88-4.41-5.04-4.41
		m0.955 23.8h-6.89c0.206-0.274 0.274-0.49 0.411-0.715 0.171-0.475 0.245-0.818 0.245-1.33v-21c0.0049-0.521-0.112-1.04-0.343-1.5-0.147-0.336-0.329-0.657-0.544-0.955h7.7c3.31 0 5.88 2.8 6.04 6.11 0.0685 2.42-0.921 3.72-2.76 4.78l-0.955 0.588 0.98 0.377c2.84 0.955 4.41 3.04 4.41 6.38-0.0342 4.51-3.24 7.27-8.43 7.27m32.3-24.4c-0.0686 0.48-0.0343 0.749-0.0343 1.22v14.9c0 4.92-4.2 8.5-9.45 8.6-5.63 0.0686-10.2-3.55-10.2-8.74v-14.7c0-0.49 0.0343-0.715-0.0343-1.16-0.0437-0.455-0.146-0.903-0.304-1.33h3.43c-0.158 0.334-0.263 0.691-0.309 1.06-0.0979 0.49-0.0685 0.749-0.0685 1.19v14.6c0 3.93 3.52 6.96 7.44 6.83 3.89-0.098 6.62-3 6.62-6.62v-14.6c0-0.509 0-0.818-0.0686-1.3-0.0775-0.386-0.192-0.763-0.343-1.13h3.55c-0.137 0.411-0.206 0.686-0.274 1.13m11.5 0.377c-1.06 0-1.71 0.0344-2.69 0.48v8.81c0.737 0.0777 1.48 0.1 2.22 0.0685 3.52-0.274 5.63-2.12 5.43-4.9-0.137-2.05-0.818-4.23-4.9-4.41m8.63 24-10.3-13.3c-0.274-0.343-0.377-0.588-0.686-0.818-0.137-0.137-0.274-0.206-0.49-0.308v11.8
		c0 0.548-0.0342 0.852 0.098 1.4 0.0685 0.475 0.206 0.749 0.377 1.22h-3.76c0.206-0.411 0.377-0.651 0.411-1.06 0.098-0.509 0.098-1.64 0.098-2.6v-18.3c0.0167-0.824-0.0522-1.65-0.206-2.46-0.098-0.49-0.274-0.686-0.48-1.06h7.68c3.34 0 6.35 2.22 6.24 5.88-0.0686 3.55-3.17 6.59-6.93 6.01 0.206 0.171 0.304 0.308 0.514 0.48 0.715 0.686 1.13 1.13 1.77 1.94l6.07 7.71c0.784 0.98 1.4 1.84 2.18 2.53l1.3 0.98-3.92-0.0049zm-26.7 5.55c-0.098 0.49-0.098 0.852-0.098 1.37l0.0343 23.9-20.6-22.8v18.9c-0.0177 0.634 0.065 1.27 0.245 1.88 0.0685 0.411 0.171 0.651 0.308 1.09h-3.14c0.245-0.343 0.377-0.49 0.49-0.921 0.137-0.509 0.137-0.852 0.137-1.37v-21.3c0-0.411-0.0686-0.715-0.274-1.09-0.143-0.334-0.395-0.61-0.715-0.784h3.76l17.9 20.4v-16.2c0-1.22 0.0685-1.96-0.171-3.24-0.0686-0.377-0.137-0.617-0.245-0.989h2.87c-0.137 0.411-0.206 0.686-0.274 1.13m20.4 24.4h-14.8c0.21-0.285 0.36-0.61 0.441-0.955 0.137-0.48 0.0686-0.823 0.0686-1.3v-21.4c4e-3 -0.374-0.0659-0.745-0.206-1.09-0.137-0.308-0.245-0.475-0.48-0.715
		h13v2.56c-0.304-0.309-0.578-0.48-0.989-0.617-0.588-0.206-0.989-0.0981-1.57-0.0981h-6.93v8.4h9.49v2.42c-0.509-0.245-0.852-0.343-1.43-0.48-0.406-0.0685-0.715-0.0684-1.13-0.0684h-6.83v11.4h8.16c1.13 0 1.77-0.0687 2.84-0.412 0.416-0.111 0.809-0.295 1.16-0.544l-0.842 2.86zm-60.1-17.4c0.0147 0 0.166-0.049 0.196-0.0294 0.161 0.0938 0.323 0.187 0.485 0.279 0.176 0.0085 0.353 0.0182 0.529 0.0293l0.318 0.0343c0.219 0.12 0.431 0.251 0.637 0.392 0.0982 0.152 0.185 0.31 0.26 0.475 0.0784 0.176 0.0294 0.455 0.0392 0.627-0.0099 0.0989-0.0263 0.197-0.049 0.294-0.0147 0.0588-0.0489 0.392-0.0489 0.392 0.0147 0.171 0.245 0.411 0.372 0.431 0.176 0.0293 0.529-0.216 0.524-0.392-0.0049-0.0636-0.0343-0.049-0.049-0.113-0.0196-0.137-0.392-0.617-0.0294-1.4 0.181-0.392 0.637-0.612 0.999-0.656 0.181-0.0244 0.411 0.0196 0.602-0.0195 0.191-0.0392 0.328-0.147 0.509-0.211 0.0386 0.0461 0.0812 0.0887 0.127 0.127 0.0245 0.0686-0.0294 0.225-0.049 0.294-0.0881 0.264 0.118 0.872 0.137 0.98 0.0079 0.305-0.0541 0.608
		-0.181 0.886-0.0832 0.132-0.22 0.308-0.416 0.392-0.343 0.157-1.2-0.0244-1.32 0.558-0.0098 0.0489-0.049 0.176-0.0196 0.23 0.0865 0.089 0.185 0.165 0.294 0.225 0.358-0.0342 0.49-0.215 0.823-0.392 0.229-0.105 0.471-0.178 0.72-0.216l0.0343 0.049c0.049 0.0294 0.162-0.0147 0.216-0.0049 0.124 0.0284 0.247 0.0644 0.367 0.108 0.215 0.147 0.402 0.588 0.48 0.793 0.0637 0.166 0.294 0.588 0.216 0.725-0.098 0.181-0.426 0.323-0.578 0.475-0.108 0.0979-0.26 0.294-0.456 0.392-0.125 0.0384-0.252 0.0662-0.382 0.0833-0.323 0.049-0.95-0.235-1.19-0.661-0.108-0.196-0.0637-0.431-0.255-0.622-0.137-0.137-0.49-0.216-0.734 0-0.0294 0.0294-0.108 0.284-0.098 0.323 0.0098 0.0391 0.0588 0.0783 0.0588 0.147 0 0.0098-0.049 0.0882-0.0392 0.098 0.0832 0.196 0.421 0.284 0.563 0.49 0.113 0.132 0.157 0.294 0.206 0.402 0.0685 0.147 0.147 0.504 0.147 0.519-0.0098 0.122 0.0049 0.358-0.0392 0.465-0.14 0.279-0.362 0.508-0.637 0.656-0.269 0.147-0.367 0.406-0.588 0.45-0.22 0.044-0.46-0.328-0.656-0.524-0.0489-0.049-0.196-0.147
		-0.245-0.196-0.294-0.318-0.313-0.646-0.309-0.911 0-0.098-0.0244-0.211 0.0098-0.294 0.0919-0.184 0.202-0.358 0.328-0.519 0.162-0.166 0.377-0.23 0.455-0.392 0.0294-0.0587 0.0588-0.255 0.0343-0.318-0.049-0.098-0.274-0.294-0.294-0.309-0.172-0.098-0.578 0.377-0.588 0.411-0.126 0.225-0.265 0.443-0.416 0.651-0.137 0.118-0.367 0.225-0.514 0.245-0.154 0.029-0.309 0.0519-0.465 0.0686-0.288-0.0451-0.555-0.175-0.769-0.372-0.147-0.166-0.504-0.412-0.504-0.412-0.132-0.147-0.181-0.176-0.137-0.304s0.181-0.225 0.26-0.362c0.0979-0.181 0.147-0.49 0.294-0.676 0.0343-0.0489 0.108-0.0636 0.147-0.0978 0.0833-0.0735 0.26-0.269 0.358-0.323 0.186-0.098 0.607-0.0981 0.784-0.0344 0.0882 0.0392 0.49 0.196 0.49 0.245 0 0.0489 0.0833 0.147 0.137 0.196 0.0538 0.049 0.127 0.0832 0.196 0.122l0.0489-0.0344c0.147 0.0245 0.328 0.0246 0.451-0.132 0.0392-0.049 0.0979-0.206 0.0685-0.264-0.216-0.172-0.446-0.328-0.686-0.465-0.049-0.0098-0.162 0.0245-0.216 5e-3 -0.113-0.0343-0.157-0.113-0.269-0.176-0.049-0.0294-0.186-0.0488
		-0.245-0.088-0.328-0.225-0.637-0.705-0.637-1.08-0.0049-0.279 0.147-0.568 0.216-0.833 0.0685-0.264-0.098-0.392-0.108-0.617-0.0049-0.0637 0.0588-0.137 0.0784-0.196m74.9-0.0295c-0.0147 0-0.166-0.049-0.196-0.0294l-0.49 0.279c-0.176 0.0087-0.353 0.0186-0.529 0.0294-0.106 0.0081-0.213 0.0194-0.318 0.0342-0.218 0.121-0.43 0.252-0.637 0.392-0.0988 0.151-0.186 0.31-0.26 0.475-0.0783 0.176-0.0245 0.455-0.0392 0.627 0.01 0.0989 0.0264 0.197 0.049 0.294 0.0273 0.131 0.0437 0.263 0.049 0.397-0.0098 0.166-0.245 0.411-0.372 0.431-0.176 0.0245-0.529-0.216-0.524-0.402 0.0049-0.0637 0.0343-0.0489 0.0489-0.112 0.0196-0.137 0.392-0.617 0.0294-1.4-0.181-0.392-0.637-0.612-0.999-0.656-0.181-0.0245-0.406 0.0196-0.602-0.0196s-0.328-0.147-0.509-0.211c0 0-0.113 0.0979-0.127 0.127-0.0294 0.0686 0.0293 0.225 0.0489 0.294 0.0833 0.264-0.118 0.881-0.137 0.979-0.0107 0.304 0.0515 0.606 0.181 0.882 0.0976 0.167 0.24 0.302 0.411 0.392 0.343 0.157 1.19-0.0244 1.32 0.558 0.0098 0.049 0.049 0.176 0.0196 0.23-0.0293
		0.0539-0.269 0.225-0.304 0.225-0.353-0.0392-0.49-0.215-0.818-0.392-0.137-0.0735-0.578-0.211-0.725-0.211l-0.0343 0.0489c-0.049 0.0294-0.162-0.0147-0.216-0.0049-0.124 0.0286-0.247 0.0646-0.367 0.108-0.216 0.147-0.402 0.588-0.48 0.794-0.0637 0.166-0.294 0.578-0.211 0.725 0.0979 0.181 0.426 0.323 0.578 0.475 0.108 0.0979 0.26 0.294 0.455 0.392 0.0686 0.0343 0.308 0.0735 0.377 0.0833 0.323 0.0489 0.95-0.235 1.19-0.661 0.108-0.186 0.0637-0.431 0.255-0.622 0.137-0.137 0.49-0.216 0.735 0 0.0494 0.102 0.0825 0.211 0.0979 0.323-0.0097 0.0391-0.0587 0.0783-0.0587 0.147 0 0.0098 0.049 0.0881 0.0392 0.0979-0.0833 0.196-0.421 0.284-0.563 0.49-0.113 0.132-0.157 0.294-0.206 0.402-0.0638 0.167-0.113 0.339-0.147 0.514 0.0098 0.122-0.0049 0.358 0.0391 0.465 0.14 0.279 0.362 0.508 0.637 0.656 0.269 0.147 0.367 0.406 0.588 0.45 0.22 0.0441 0.46-0.328 0.656-0.524 0.049-0.049 0.196-0.147 0.245-0.196 0.11-0.123 0.194-0.267 0.247-0.424 0.053-0.157 0.0738-0.322 0.0611-0.487 0-0.0979 0.0245-0.211-0.0098-0.294
		-0.0918-0.184-0.202-0.357-0.328-0.519-0.162-0.166-0.377-0.23-0.456-0.392-0.0293-0.0588-0.0587-0.255-0.0342-0.314 0.0391-0.0979 0.274-0.294 0.294-0.308 0.171-0.098 0.578 0.377 0.588 0.411 0.125 0.227 0.264 0.446 0.416 0.656 0.137 0.118 0.367 0.225 0.514 0.245l0.46 0.0686c0.288-0.0452 0.555-0.175 0.769-0.372 0.147-0.166 0.504-0.411 0.504-0.411 0.132-0.147 0.181-0.176 0.147-0.304-0.0342-0.127-0.181-0.225-0.26-0.358-0.098-0.181-0.147-0.49-0.294-0.676-0.0342-0.049-0.0979-0.0636-0.147-0.0979-0.0832-0.0735-0.26-0.269-0.358-0.323-0.249-0.0959-0.522-0.108-0.779-0.0342-0.169 0.0697-0.334 0.148-0.495 0.235-0.0588 0.049-0.0832 0.147-0.137 0.196-0.0539 0.0489-0.127 0.0832-0.196 0.122l-0.049-0.0343c-0.147 0.0245-0.328 0.0245-0.45-0.132-0.0392-0.049-0.098-0.206-0.0686-0.264 0.218-0.172 0.449-0.328 0.69-0.465 0.049-0.0147 0.162 0.0197 0.216 5e-3 0.113-0.0343 0.157-0.113 0.269-0.176 0.0489-0.0294 0.186-0.049 0.245-0.0882 0.328-0.225 0.637-0.705 0.637-1.08 0.0049-0.279-0.147-0.568-0.211-0.832-0.0637
		-0.264 0.0979-0.392 0.0979-0.617 0.0049-0.0637-0.0489-0.137-0.0783-0.196" />
	<path fill="#1769af"
		d="m13.5 132v10.2h1.4v-10.2h-1.4zm3.27 0v10.2h1.4v-10.2h-1.4zm56 0v10.2h1.4v-5.8l0.67-0.1c0.35-0.1 0.92-0.1 1.27 0.1l0.63 0.2v5.6h1.68l-0.09-2.9c-0.07-2.4-0.15-3-0.52-3.4-0.6-0.6-1.96-1-2.89-0.7l-0.75 0.2v-3.4h-1.4zm-51.9 0.4c-0.6 0-0.91 0.5-0.7 1 0.09 0.2 0.4 0.4 0.7 0.4 0.31 0 0.63-0.2 0.7-0.4 0.23-0.5-0.09-1-0.7-1zm44.6 0c-0.51 0-0.57 0.1-0.57 0.7s0.06 0.7 0.66 0.7c0.45 0 0.72-0.2 0.79-0.4 0.17-0.7-0.07-1-0.77-1h-0.11zm-56.2 0.5-1.87 0.1-1.46 4.2c-0.801 2.3-1.52 4.4-1.59 4.6h0.011c-0.108 0.3 0.012 0.4 0.657 0.4 0.752 0 0.807 0 1.19-1.3l0.404-1.2h3.44l0.4 1.2c0.39 1.3 0.44 1.3 1.21 1.3 0.54 0 0.76-0.1 0.69-0.3-0.03-0.1-0.32-0.9-0.72-2.1-0.26-0.7-0.56-1.6-0.88-2.5l-1.49-4.4zm60.7 0.3c-0.05 0-0.36 0.1-0.7 0.2-0.49 0.2-0.59 0.4-0.59 1 0 0.7-0.09 0.9-0.47 0.9-0.3 0-0.46 0.1-0.46 0.4 0 0.4 0.16 0.5 0.46 0.5 0.43 0 0.47 0.2 0.47 2.6 0 2.2 0.05 2.6 0.47 3 0.3 0.3 0.77 0.5 1.4 0.5 0.82 0 0.93-0.1 0.93-0.6s-0.14-0.6-0.65-0.6l-0.63-0.1-0.14-4.8h0.72c0.54 0 0.7-0.1 0.7-0.5 0-0.3-0.16-0.4-0.7-0.4-0.68
		0-0.7-0.1-0.7-1.1 0-0.6-0.05-1-0.11-1zm-61.6 1.1 0.648 1.9c0.355 1 0.646 2.1 0.646 2.2 0 0.2-0.387 0.3-1.28 0.3-0.836 0-1.28-0.1-1.28-0.3 0-0.1 0.285-1.1 0.635-2.2l0.635-1.9zm17.6 0.6c-1.14 0-2.28 0.5-2.28 1 0 0.4 0.13 0.4 1.39 0.3 1.57-0.2 2.11 0.1 2.11 1 0 0.4-0.12 0.5-0.66 0.5-0.37 0-1.16 0.2-1.77 0.4-0.86 0.3-1.19 0.6-1.43 1.1-0.61 1.5 0.12 2.7 1.82 3 0.96 0.1 1.85 0 2.92-0.2 0.5-0.1 0.52-0.2 0.52-2.8 0-1.5-0.12-2.9-0.26-3.1-0.28-0.6-1.54-1.2-2.36-1.2zm6.85 0.1c-0.18 0-0.37 0-0.56 0.1h-0.3c-0.61 0.1-0.99 0.1-1.22 0.3-0.35 0.3-0.35 1.1-0.35 2.9v3.9h1.4v-2.9c0-2.4 0.07-2.9 0.37-3 0.71-0.3 1.5-0.2 1.97 0.3 0.41 0.4 0.46 0.8 0.46 3v2.6h1.4v-2.7c0-1.5-0.11-2.9-0.27-3.2-0.33-0.8-1.59-1.3-2.9-1.3zm7.65 0.1c-1.09 0-2.07 0.6-2.56 1.6-0.82 1.7-0.52 3.9 0.7 4.9 0.58 0.5 0.96 0.6 1.92 0.6 1.51 0 1.93-0.2 1.59-0.8-0.19-0.4-0.41-0.5-0.97-0.4-1.63 0.3-2.61-1.3-2.09-3.2 0.32-1.2 1.11-1.7 2.12-1.5 0.51 0.1 0.79 0 0.93-0.2 0.33-0.5 0.26-0.6-0.72-0.9-0.31-0.1-0.62-0.1-0.92-0.1zm5.83 0h-0.49c-1.69 0.4-2.53
		1.6-2.53 3.7s0.96 3.3 2.85 3.5c0.58 0.1 1.28 0 2.27-0.1 0.32-0.1 0.53-0.3 0.53-0.6 0-0.6-0.28-0.7-1.26-0.5-1.49 0.4-2.94-0.3-2.94-1.5 0-0.2 0.19-0.4 0.45-0.4 0.25 0 1.25-0.1 2.21-0.2l1.76-0.3v-0.8c0-1.6-1.29-2.8-2.85-2.8zm13.1 0-0.7 0.1c-0.69 0.1-0.73 0.2-1.34 2.5-0.35 1.3-0.68 2.5-0.74 2.6-0.05 0.2-0.4-0.9-0.77-2.4l-0.68-2.7h-1.47l0.68 2.2c0.2 0.7 0.43 1.5 0.62 2.1h0.01c0.17 0.6 0.32 1.1 0.41 1.4 0.33 1.2 0.4 1.3 1.1 1.3h0.75l1.43-5.3 0.39 1.4c0.06 0.2 0.13 0.4 0.2 0.7 0.19 0.6 0.4 1.4 0.55 1.9 0.33 1.2 0.4 1.3 1.1 1.3h0.74l0.91-3.1c0.25-0.9 0.49-1.7 0.68-2.3 0.18-0.7 0.31-1.1 0.35-1.2 0.07-0.4-0.05-0.4-0.6-0.4-0.68 0-0.71 0-1.19 1.8-0.28 1-0.56 2.1-0.64 2.5-0.09 0.5-0.23 0.7-0.32 0.6-0.1-0.1-0.47-1.2-0.82-2.6l-0.65-2.4zm-39.1 0.1v7h1.4v-7h-1.4zm44.8 0v7h1.39v-7h-1.39zm-18.6 1c0.27 0 0.52 0.1 0.75 0.2 0.35 0.2 0.81 1.4 0.6 1.5-0.09 0.1-0.89 0.2-1.79 0.3l-1.59 0.2 0.16-0.7c0.21-0.9 1.07-1.5 1.87-1.5zm-19.3 2.4v2.6h-0.89c-2.45 0-2.52-2.1-0.07-2.5l0.96-0.1z" />
	<path fill="#1769af"
		d="m163 131v3.4h-1.1c-1.5 0-2.6 0.6-3.1 1.8-0.6 1.3-0.6 2.8 0 4.1 0.6 1.1 1.1 1.4 2.3 1.7 1 0.1 2.8-0.1 3.3-0.4 0.2-0.1 0.2-1.4 0.2-5.4v-5.2h-1.6zm28 0.4c-0.1 0-0.2 0-0.3 0.1-0.5 0.2-0.7 1-0.2 1.4 0.6 0.3 0.9 0.3 1.3 0 0.6-0.6 0-1.5-0.8-1.5zm-38.6 0.6v10.1h5.4v-1.4h-3.8v-3.1h3.3v-1.4h-3.3v-3h1.9c1.8 0 1.9 0 1.9-0.6v-0.6h-5.4zm34.9 0.5c-0.1 0-0.3 0-0.6 0.1-0.2 0.1-0.4 0.5-0.4 1.1 0 0.7 0 0.9-0.3 0.9-0.4 0-0.5 0.1-0.5 0.6 0 0.4 0.1 0.5 0.5 0.5 0.3 0 0.3 0.2 0.3 2.6 0 2.2 0.2 2.6 0.6 3.1 0.3 0.5 0.7 0.6 1.5 0.6 0.9 0 1.1 0 1.1-0.6s-0.2-0.7-0.7-0.7c-0.4 0-0.7-0.1-0.7-0.3-0.2-0.2-0.4-1.3-0.4-2.5v-2.2h0.9c0.7 0 0.9 0 0.9-0.5s-0.2-0.6-0.9-0.7c-0.7 0-0.7-0.1-0.7-1-0.1-0.7-0.2-1-0.6-1zm8.8 1.8c-1.8 0.1-3 1.3-3.1 3.4-0.2 2.3 0.7 3.9 2.6 4.3 2.3 0.4 3.8-1.1 3.8-3.9 0-2.1-1-3.6-2.8-3.8h-0.5zm7.1 0.1c-0.5 0-1.1 0.1-1.7 0.2l-0.8 0.3v7.2h1.4v-6.3l0.7-0.1c0.8-0.2 1.9 0.1 2.1 0.7 0.1 0.2 0.1 1.5 0.1 3v2.7h1.4v-3.1c0-1.2-0.1-2.4-0.1-3v-0.5c-0.4-0.7-1.7-1.1-3.1-1.1zm-27.3 0c-1.7 0-2.8 1.2-3.1 3.3-0.1 1.7 0.4 3.3
		1.5 3.9 0.4 0.3 1.1 0.4 1.8 0.4 1.4 0 1.9-0.2 1.7-0.9-0.1-0.4-0.3-0.4-1.2-0.3-1.4 0.2-2.2-0.7-2.2-2.5 0-1.9 1.2-3 2.4-2.6 0.5 0.2 0.7 0.2 0.9-0.2 0.3-0.7 0-1-1.4-1.1h-0.4zm5.8 0c-1.1 0-2.2 0.2-2.4 0.5-0.1 0.1-0.1 0.4 0 0.6 0 0.4 0.2 0.4 0.7 0.3 1.4-0.6 3.2-0.1 3.2 0.9 0 0.4-0.2 0.5-2.3 0.8-0.5 0.1-1.2 0.4-1.6 0.8-0.5 0.4-0.7 0.7-0.7 1.6 0 0.7 0.2 1.1 0.6 1.5 0.3 0.4 0.7 0.5 1.9 0.7 0.5 0.1 1 0.1 2.6-0.1l0.9-0.2v-2.8c0-3.3-0.4-4-1.8-4.4-0.2-0.1-0.7-0.2-1.1-0.2zm8.7 0.2v7.4h1.4v-7.4h-1.4zm-24.5 0v2.7c0 3.7 0.4 4.4 2.4 4.8 0.6 0.1 2.4-0.1 3.1-0.3 0.5-0.2 0.5-0.3 0.5-3.7v-3.5h-1.6v6.3h-1c-1.6 0-1.8-0.3-1.8-3.5v-2.8h-1.6zm30.2 0.9c0.3 0 0.6 0.1 0.9 0.2 1.2 0.8 1.4 3.5 0.3 4.6-1.2 1.3-2.8 0.2-2.8-2 0-1.7 0.7-2.8 1.6-2.8zm-34.2 0c0.2 0 0.4 0 0.6 0.1 0.5 0.1 0.5 0.2 0.5 2.6v2.6h-0.9c-1.5 0-2.1-0.8-2.1-2.5s0.8-2.8 1.9-2.8zm20.4 2.8h0.9v1.3c0 0.9-0.2 1.3-0.4 1.4-1.2 0.4-2.8-0.2-2.8-1.1 0-1 0.9-1.6 2.3-1.6z" />
	<path fill="#1769AF"
		d="m84.8 149c0-0.752 4.79-20.6 5.14-21.3 0.734-1.51 1.94-2.75 3.53-3.62l1.47-0.799 6.37-0.075c5.18-0.062 6.33-0.018 6.24 0.232-0.069 0.17-1.17 4.9-2.45 10.5-1.49 6.49-2.55 10.6-2.9 11.3-0.682 1.33-2.13 2.71-3.6 3.39-1.01 0.455-1.52 0.49-7.43 0.56-3.5 0.035-6.37-0.018-6.37-0.123v-0.075zm6.33-6.96c0.874-0.612 1.33-1.47 1.78-3.36l0.192-0.822 2.9-0.122c1.59-0.07 3.13-0.245 3.39-0.402 0.682-0.385 1.96-1.87 1.96-2.27 0-0.297-0.612-0.349-3.72-0.349-2.06 0-3.74-0.088-3.74-0.175 0-0.088 0.122-0.577 0.245-1.05l0.245-0.875h3.32c1.82 0 3.67-0.105 4.13-0.227 0.945-0.262 1.94-1.2 2.31-2.17l0.244-0.64h-5.19c-4.6 0-5.28 0.047-5.98 0.432-1.36 0.729-1.63 1.34-2.83 6.59-0.63 2.74-1.19 5.23-1.26 5.51-0.105 0.455-0.035 0.525 0.507 0.525 0.35 0 1.03-0.263 1.5-0.595v-2e-3z" />
	<path fill="#F37022"
		d="m103 155c0-0.052 0.245-1.19 0.542-2.52 1.78-7.83 2.99-13 3.18-13.8 0.14-0.507 1.03-4.34 1.98-8.52 0.962-4.16 1.99-8.03 2.27-8.59 0.682-1.34 2.69-3.15 4.07-3.67 0.944-0.348 2.1-0.43 7.26-0.51 5.88-0.093 6.14-0.079 6.02 0.332-0.07 0.234-0.455 1.85-0.839 3.57-2.73 12.2-6.58 28.3-6.96 29.2-0.664 1.49-2.01 2.89-3.64 3.72l-1.42 0.734-6.24 0.088c-3.43 0.035-6.22 0.017-6.22-0.035v0.038zm7.22-12.6c0.926-0.489 1.5-1.4 1.99-3.1 0.332-1.19 0.49-1.47 0.892-1.49 0.28 0 1.71 0 3.2 0.017 3.24 0.053 4.39-0.21 5.19-1.17 0.682-0.805 1.28-2.57 1.47-4.3 0.123-1.04 0.053-1.27-0.507-1.92l-0.629-0.751h-10.6l-0.384 1.8c-0.21 0.997-0.875 3.9-1.45 6.45s-1.07 4.67-1.07 4.72c0 0.21 1.28 0.035 1.87-0.262v-2e-3zm3.3-7.76c-0.14-0.052-0.123-0.454 0.017-0.996l0.227-0.927h6l-0.14 0.752c-0.087 0.419-0.21 0.839-0.279 0.909-0.158 0.157-5.44 0.385-5.82 0.262z" />
	<path fill="#21B24B"
		d="m123 148c0.07-0.227 1.14-4.83 2.38-10.2 1.33-5.8 2.47-10.3 2.8-11 0.752-1.55 2.26-3.04 3.85-3.8 1.26-0.607 1.33-0.612 7.54-0.687 5.96-0.072 6.24-0.056 6.14 0.35-0.07 0.234-1.14 4.83-2.36 10.2-1.24 5.39-2.5 10.3-2.8 11-0.717 1.56-2.17 2.99-3.83 3.78-1.29 0.612-1.36 0.612-7.57 0.682-5.93 0.07-6.24 0.052-6.14-0.35v5e-3zm10.5-6.85c0.472-0.42 0.961-0.962 1.1-1.22 0.14-0.263 0.63-2.15 1.1-4.22l0.839-3.74 4.9-0.245 0.069-0.755c0.053-0.591-0.087-0.916-0.629-1.46l-0.699-0.696h-5.35c-5.04 0-5.39 0.027-5.51 0.436-0.193 0.622 0.209 1.52 0.926 2.1 0.472 0.367 0.962 0.49 1.89 0.49s1.26 0.087 1.26 0.332c0 0.175-0.472 2.38-1.05 4.88-0.577 2.5-1.05 4.6-1.05 4.67 0 0.087 0.298 0.14 0.682 0.14 0.455 0 0.997-0.263 1.52-0.717v7e-3z" />
	<path fill="#1769AF"
		d="m144 148c-0.77-0.717-0.997-1.57-0.612-2.46 0.385-0.944 1.07-1.4 2.08-1.4 1.08 0 1.77 0.507 2.1 1.52 0.7 2.12-1.94 3.86-3.57 2.34zm2.59-0.367c0.664-0.612 0.699-1.92 0.052-2.55-1.07-1.07-2.8-0.262-2.8 1.28 0 1.56 1.64 2.31 2.75 1.28zm-2.05-1.28v-1.28h0.822c0.944 0 1.28 0.49 0.822 1.22-0.21 0.332-0.21 0.525-0.035 0.717 0.314 0.315 0.332 0.612 0.017 0.612-0.122 0-0.35-0.262-0.507-0.577-0.14-0.315-0.35-0.577-0.455-0.577s-0.192 0.262-0.192 0.577-0.105 0.577-0.245 0.577c-0.122 0-0.227-0.577-0.227-1.28zm1.29-0.368c0.21-0.332-0.402-0.734-0.682-0.454-0.227 0.227 0 0.699 0.315 0.699 0.122 0 0.279-0.105 0.367-0.245z" />
</svg>
